<?xml version="1.0" encoding="UTF-8"?>
<svg id="_레이어_2" data-name="레이어 2" xmlns="http://www.w3.org/2000/svg" viewBox="0 0 147.32 146">
  <defs>
  </defs>
  <g id="_레이어_2-2" data-name="레이어 2">
    <path class="cls-1" d="m19.32,0h40l1,3h1v2l2,1,1,4,2,1,2,6,2,1,2,6,2,1,2,6,2,1c1.69,4.1-2.02,6.3-3,8v2l-2,1-2,6-2,1-2,6-2,1-2,6-2,1c-.73,1.14-.87,4.37-2,5H19.32c-3.34-7.25-7.98-13.58-12-20l-2-6-2-1-1-4-2-1c-1.57-3.79,3.04-8.22,4-10l1-4,2-1,1-4,2-1,1-4,2-1,1-4c1.45-2.67,3.63-5.08,5-8Z"/>
    <path class="cls-1" d="m87.32,39h41l1,3h1v2h1v2l2,1,2,6,2,1,2,6,2,1,1,4h1c1.86,3.27,3.45,5.61,4,10-3.44,2.37-2.85,5.58-5,9l-2,1-1,4-2,1-1,4-2,1v2l-2,2v2l-5,7h-39c-1.09-1.99-2.96-4.07-4-6l-1-4-2-1-1-4-2-1-1-4-2-1-2-6c-.89-1.62-5.56-6.36-5-9h1l1-4,2-1,1-4,2-1,1-4,2-1v-2h1v-2l2-2v-2l2-1v-2c1.44-2.49,3.2-3.47,4-7Z"/>
    <path class="cls-1" d="m19.32,77h40l1,3h1v2l2,1,1,4,2,1,1,4,2,1v2h1v2l2,2v2l2,1,1,4,2,1c1.06,1.78.88,4.22,1,7-3.12,2.15-2.1,3.98-4,7l-2,1-1,4-2,1-2,6-2,1v2h-1v2h-1l-4,8H19.32l-4-8h-1l-1-4-2-1-1-4-2-1v-2l-2-2v-2h-1v-2l-2-1-1-4-2-1c-1.55-3.74,3.02-8.26,4-10l15-27Z"/>
  </g>
</svg>